<?xml version="1.0" encoding="UTF-8"?>
<svg version="1.1" xmlns="http://www.w3.org/2000/svg" width="1012" height="277">
<path d="M0 0 C4.32581816 4.29940095 6.02715604 8.10171581 7.5 13.9375 C7.91308905 15.4485406 8.32850249 16.95894744 8.74609375 18.46875 C8.95218262 19.22542969 9.15827148 19.98210938 9.37060547 20.76171875 C11.75868493 29.25431474 14.75051931 37.56427896 18.0859375 45.7265625 C22.8088033 57.47317744 22.8088033 57.47317744 22 63 C18.15434323 65.56377118 16.58969584 65.5099662 12 65 C8.53908641 63.55206676 5.26687823 61.84049478 2 60 C1.67 61.175625 1.34 62.35125 1 63.5625 C-2.97690374 75.29068372 -9.27104965 85.04349219 -17.484375 94.1953125 C-19.08091254 95.97530312 -20.63219056 97.79781982 -22.1171875 99.671875 C-25.0253669 103.26788107 -28.44634 106.05712531 -32 109 C-32.99 109.82757813 -33.98 110.65515625 -35 111.5078125 C-53.32698815 126.54045856 -74.71598692 137.87131207 -96.98828125 145.90234375 C-99.51573516 146.82350399 -101.99173628 147.80936193 -104.48046875 148.828125 C-110.90010686 151.40996847 -117.44805653 153.59372292 -124 155.8125 C-134.41543395 159.36686133 -144.7559645 163.04403325 -154.95703125 167.17773438 C-157.0900903 168.03626006 -159.23172178 168.8704709 -161.375 169.703125 C-182.36375551 177.80682329 -182.36375551 177.80682329 -198.25 192.94921875 C-199.14363806 195.39276032 -199.08056523 196.99192041 -198.75 199.5625 C-198.66234375 200.32691406 -198.5746875 201.09132812 -198.484375 201.87890625 C-198.06735941 204.28412893 -198.06735941 204.28412893 -196 207 C-195.01 207.33 -194.02 207.66 -193 208 C-193.00902344 207.443125 -193.01804687 206.88625 -193.02734375 206.3125 C-192.79838783 200.41937379 -191.31876356 197.12696545 -187.2109375 192.91015625 C-177.88202626 184.85037251 -166.52535261 180.09280243 -154.99609375 176.08984375 C-152.40252641 175.14642095 -149.86206825 174.13110966 -147.30859375 173.0859375 C-142.15567234 171.01300012 -136.93074657 169.32088861 -131.625 167.6875 C-81.70053077 152.81672825 -81.70053077 152.81672825 -37.15234375 126.6953125 C-35 125 -35 125 -32.8125 125.125 C-31 126 -31 126 -29 128 C-28.76990593 131.83490109 -29.09522566 133.84694985 -31.48046875 136.88671875 C-45.17707618 149.94750688 -63.61878398 156.50965629 -81 163 C-81.88623047 163.34047363 -82.77246094 163.68094727 -83.68554688 164.03173828 C-90.59469787 166.63730794 -97.61416276 168.64474103 -104.73757935 170.57788086 C-118.2896399 174.2622953 -131.66913935 178.3519942 -144.98535156 182.81298828 C-146.19803711 183.21501465 -147.41072266 183.61704102 -148.66015625 184.03125 C-149.71855713 184.38767578 -150.77695801 184.74410156 -151.86743164 185.11132812 C-155.23418074 186.06643425 -158.52931703 186.57848387 -162 187 C-162 187.66 -162 188.32 -162 189 C-162.969375 189.37125 -163.93875 189.7425 -164.9375 190.125 C-170.68663637 192.58891559 -176.4971166 195.74567489 -180 201 C-180.57739598 205.60352972 -180.57739598 205.60352972 -178.73046875 209.61328125 C-172.52674662 214.58466129 -164.54311928 214.41050989 -157 214 C-155.59427734 213.95359375 -155.59427734 213.95359375 -154.16015625 213.90625 C-141.85377625 213.24550477 -130.34111638 209.3243952 -118.92578125 204.953125 C-116 204 -116 204 -112 204 C-112 203.34 -112 202.68 -112 202 C-108.04 201.01 -108.04 201.01 -104 200 C-104 199.34 -104 198.68 -104 198 C-101.03 197.01 -98.06 196.02 -95 195 C-95 194.34 -95 193.68 -95 193 C-93.61660596 192.02150177 -92.22405888 191.05346707 -90.7890625 190.15234375 C-88.29966057 188.54890801 -85.96631325 186.7490023 -83.61328125 184.953125 C-82 184 -82 184 -79 184 C-78.67 183.01 -78.34 182.02 -78 181 C-77.195625 180.690625 -76.39125 180.38125 -75.5625 180.0625 C-72.44408074 178.76949689 -72.41535689 177.91917359 -71 175 C-68.34587239 173.16252704 -66.06638854 172.02212951 -63 171 C-64.48178208 176.51137653 -68.36198539 179.8161146 -72.3125 183.6875 C-73.03091064 184.39648438 -73.74932129 185.10546875 -74.48950195 185.8359375 C-84.36936901 195.44133343 -95.10763031 203.05373974 -107 210 C-107.81339844 210.495 -108.62679687 210.99 -109.46484375 211.5 C-113.99099793 214.17273779 -118.35465128 215.90676144 -123.4453125 217.2265625 C-126.17356872 217.99876228 -126.17356872 217.99876228 -129.34375 219.453125 C-132.99205107 220.99663699 -136.54940091 222.10644427 -140.375 223.125 C-142.21191406 223.62386719 -142.21191406 223.62386719 -144.0859375 224.1328125 C-152.88870611 226.22420704 -161.80578347 226.21148919 -170.8125 226.25 C-172.00681641 226.270625 -173.20113281 226.29125 -174.43164062 226.3125 C-188.42169599 226.37342566 -201.87976916 223.32954376 -212.52734375 213.71875 C-217.49590212 208.32790909 -220.51874126 203.75664174 -220.234375 196.1640625 C-219.17265956 186.3608899 -213.77230446 179.65946699 -206.20556641 173.55151367 C-187.92625762 159.59207588 -166.78644006 150.52046358 -146.03417969 140.93939209 C-120.04466598 128.9373336 -95.51899882 115.7733843 -73 98 C-72.08476562 97.2884375 -71.16953125 96.576875 -70.2265625 95.84375 C-67.92804817 94.08648267 -67.92804817 94.08648267 -66.3125 91.75 C-65.879375 91.1725 -65.44625 90.595 -65 90 C-64.34 90 -63.68 90 -63 90 C-62.76539063 89.46117188 -62.53078125 88.92234375 -62.2890625 88.3671875 C-60.64427266 85.34675524 -58.5239296 82.79228872 -56.375 80.125 C-48.42006636 69.9917406 -42.59302984 59.05670333 -38 47 C-39.216875 46.87625 -40.43375 46.7525 -41.6875 46.625 C-45.93767431 46.08434178 -49.32447062 45.17287057 -52.875 42.6875 C-54 41 -54 41 -53.85546875 38.6796875 C-50.82690993 29.19296899 -35.82137358 21.24079938 -27.98242188 15.47265625 C-23.89256143 12.4344742 -19.88580685 9.2876417 -15.8671875 6.15625 C-6.18567639 -1.12466844 -6.18567639 -1.12466844 0 0 Z " fill="#2DB5ED" transform="translate(240,31)"/>
<path d="M0 0 C2.17035347 1.59159254 4.02147781 3.07247534 5.8125 5.0625 C6.1425 2.7525 6.4725 0.4425 6.8125 -1.9375 C12.7525 -1.9375 18.6925 -1.9375 24.8125 -1.9375 C24.8125 7.03838424 24.8125 7.03838424 24.296875 10.3203125 C24.18206787 11.0922998 24.06726074 11.86428711 23.94897461 12.65966797 C23.75766968 13.91094482 23.75766968 13.91094482 23.5625 15.1875 C22.47126867 22.66699528 21.56442737 30.15357276 20.79296875 37.671875 C20.66322159 38.93479874 20.66322159 38.93479874 20.53085327 40.22323608 C20.09745544 44.46841705 19.673878 48.71441818 19.25878906 52.96142578 C19.09841364 54.55502373 18.93793613 56.1486114 18.77734375 57.7421875 C18.70968307 58.46235046 18.6420224 59.18251343 18.5723114 59.92449951 C17.34592162 71.95156395 13.90469654 82.46339919 4.3515625 90.37109375 C-4.25952519 96.10740293 -14.90213878 98.23371611 -25.0546875 96.6015625 C-34.49106649 94.56061539 -41.41530943 91.33189214 -46.75 83.0625 C-49.0201028 79.22362698 -49.43962938 76.5103209 -49.1875 72.0625 C-46.43513726 71.90024281 -43.69232524 71.7815672 -40.9375 71.6875 C-40.16019531 71.63722656 -39.38289062 71.58695312 -38.58203125 71.53515625 C-36.30649161 71.47680908 -34.39560065 71.4994132 -32.1875 72.0625 C-29.81640625 74.96875 -29.81640625 74.96875 -28.1875 78.0625 C-23.78278672 80.99897552 -20.42864907 81.60468784 -15.1875 81.0625 C-10.33028749 79.80491027 -6.16994825 78.26001975 -3.1875 74.0625 C-0.77646226 68.68724271 0.18662015 63.92371565 -0.1875 58.0625 C-0.58839844 58.46082031 -0.98929688 58.85914063 -1.40234375 59.26953125 C-7.13240011 64.60978786 -12.88840741 67.11275263 -20.75 67.4375 C-27.44159634 67.18058007 -33.48301932 64.89078281 -38.1875 60.0625 C-45.98084622 48.94580664 -47.37153181 38.30488133 -46.1875 25.0625 C-44.27027942 15.36159347 -38.84987057 7.39641766 -30.8125 1.6875 C-20.70933423 -4.48760981 -10.5565139 -6.41670453 0 0 Z " fill="#F9F9F9" transform="translate(556.1875,117.9375)"/>
<path d="M0 0 C7.31483071 6.92899349 10.98554643 13.91113635 11.57250977 24.05688477 C11.84656622 35.5073457 8.60183156 44.92866331 1.375 54 C-4.46442447 60.05402615 -13.27904495 64.74294276 -21.73046875 65.203125 C-33.72561015 65.41886495 -40.96581725 64.67632031 -50.01953125 56.18359375 C-52.8380041 53.07604676 -54.56262837 49.91739625 -56 46 C-56.35449219 45.06542969 -56.70898438 44.13085938 -57.07421875 43.16796875 C-60.01120721 33.11776775 -58.08630805 22.44165586 -54 13 C-48.35351238 2.9766492 -39.40557614 -3.41366888 -28.5625 -6.75 C-18.16795796 -7.76410166 -8.35386143 -6.86873051 0 0 Z " fill="#0EACEA" transform="translate(875,121)"/>
<path d="M0 0 C5.94 0 11.88 0 18 0 C19.96218213 9.1507372 21.29059983 18.36711677 22.625 27.625 C22.85652781 29.21748327 23.08829676 30.8099315 23.3203125 32.40234375 C23.88298823 36.26783096 24.44240234 40.13377715 25 44 C25.22349121 43.37270996 25.44698242 42.74541992 25.67724609 42.09912109 C28.51242678 34.21506661 31.54760568 26.41722574 34.625 18.625 C35.11991986 17.36854007 35.61471214 16.11202988 36.109375 14.85546875 C38.06202031 9.89916413 40.0215666 4.9460835 42 0 C47.61 0 53.22 0 59 0 C59.83710081 4.8562087 60.67358824 9.71251509 61.50854492 14.5690918 C61.79236945 16.21889252 62.07654374 17.86863311 62.36108398 19.51831055 C62.77160647 21.89876577 63.18084241 24.27943925 63.58984375 26.66015625 C63.71592514 27.38960953 63.84200653 28.11906281 63.97190857 28.87062073 C64.72082658 33.23875942 65.39298297 37.60983118 66 42 C68.27386959 41.15192035 68.27386959 41.15192035 68.89453125 38.48046875 C69.19746094 37.39378906 69.50039063 36.30710938 69.8125 35.1875 C71.16008901 30.59161809 72.66626192 26.21040157 74.5625 21.8125 C76.46909439 17.38522408 78.02466317 12.99169346 79.32421875 8.3515625 C80.13161053 5.5420258 81.07558787 2.7732364 82 0 C87.94 0 93.88 0 100 0 C99.08215849 4.58920753 97.70154673 8.61130625 95.97265625 12.921875 C95.66779297 13.69161652 95.36292969 14.46135803 95.04882812 15.25442505 C94.05743538 17.75458029 93.06005888 20.25229942 92.0625 22.75 C91.38108329 24.46486916 90.70001386 26.17987637 90.01928711 27.89501953 C88.0184828 32.93226297 86.00981804 37.96634775 84 43 C83.43743105 44.41045427 82.87492688 45.82093438 82.3125 47.23144531 C79.55014559 54.15770809 76.7795278 61.08061079 74 68 C68.06 68 62.12 68 56 68 C54.83514752 62.22895423 53.67998846 56.45610605 52.53466797 50.68115234 C52.05209534 48.26123792 51.56022827 45.84341805 51.06640625 43.42578125 C49.68424099 36.53257234 48.62255388 30.04566096 49 23 C48.34 23 47.68 23 47 23 C46.90074219 23.81726563 46.80148437 24.63453125 46.69921875 25.4765625 C45.86362477 29.68720926 44.41940084 33.40770892 42.8125 37.375 C42.17879984 38.96969963 41.5460063 40.5647598 40.9140625 42.16015625 C40.59469727 42.96340332 40.27533203 43.76665039 39.94628906 44.59423828 C38.22526113 48.96962766 36.59260372 53.3777921 34.9543457 57.78466797 C33.67872775 61.20999668 32.35791104 64.60522241 31 68 C25.06 68 19.12 68 13 68 C12.60039063 65.80085938 12.20078125 63.60171875 11.7890625 61.3359375 C10.56519292 54.73202935 9.20398136 48.16360369 7.7734375 41.6015625 C7.57872864 40.70709412 7.38401978 39.81262573 7.18341064 38.89105225 C6.37812691 35.19977771 5.57013859 31.50912555 4.75585938 27.81982422 C4.15255026 25.08147118 3.55629854 22.34165297 2.9609375 19.6015625 C2.77864594 18.78466949 2.59635437 17.96777649 2.40853882 17.12612915 C1.17692935 11.42817963 0.49833337 5.80916166 0 0 Z " fill="#0DA9EA" transform="translate(891,116)"/>
<path d="M0 0 C5.94 0 11.88 0 18 0 C17.48822036 8.35906744 16.73980741 16.47724906 15.40234375 24.74609375 C14.97588962 28.19498979 14.93416633 31.52837106 15 35 C15.40089844 34.60167969 15.80179688 34.20335937 16.21484375 33.79296875 C21.91020754 28.48504467 27.23703165 26.41810759 34.9375 25.5625 C41.58252976 25.88082478 47.92578554 28.37455678 52.5 33.25 C61.34282649 45.04043531 56.26442122 63.26250448 54.5 76.6875 C54.25848182 78.56437181 54.01759114 80.44132448 53.77734375 82.31835938 C53.19328437 86.88006456 52.59638008 91.43982235 52 96 C46.06 96 40.12 96 34 96 C34.58082605 85.89362676 35.67904567 75.92170865 36.98364258 65.88500977 C38.80041623 55.59941556 38.80041623 55.59941556 36.125 46.0625 C32.62968282 42.66998627 30.02153109 42.65468494 25.31640625 42.72265625 C20.51497928 43.29753199 17.86277964 46.04135595 14.75 49.5 C10.08330485 58.8333903 10.17791355 70.92986888 8.875 81.25 C8.69161666 82.68882892 8.50802414 84.12763119 8.32421875 85.56640625 C7.8800245 89.043927 7.44009739 92.52194877 7 96 C1.06 96 -4.88 96 -11 96 C-10.14550044 84.25063112 -8.63608427 72.59731847 -7.15673828 60.9140625 C-5.95519026 51.3982159 -4.86698522 41.93588771 -4.26416016 32.35986328 C-3.77040737 26.07980244 -2.83560797 19.85780581 -1.9375 13.625 C-1.74891224 12.29172837 -1.56075942 10.95839514 -1.37304688 9.625 C-0.91961025 6.41606387 -0.46041888 3.20794176 0 0 Z " fill="#F8F8F9" transform="translate(598,88)"/>
<path d="M0 0 C1.8125 0.875 1.8125 0.875 3.8125 2.875 C4.04259407 6.70990109 3.71727434 8.72194985 1.33203125 11.76171875 C-12.36457618 24.82250688 -30.80628398 31.38465629 -48.1875 37.875 C-49.07373047 38.21547363 -49.95996094 38.55594727 -50.87304688 38.90673828 C-57.78219787 41.51230794 -64.80166276 43.51974103 -71.92507935 45.45288086 C-85.4771399 49.1372953 -98.85663935 53.2269942 -112.17285156 57.68798828 C-113.38553711 58.09001465 -114.59822266 58.49204102 -115.84765625 58.90625 C-116.90605713 59.26267578 -117.96445801 59.61910156 -119.05493164 59.98632812 C-122.42168074 60.94143425 -125.71681703 61.45348387 -129.1875 61.875 C-129.1875 62.535 -129.1875 63.195 -129.1875 63.875 C-130.156875 64.24625 -131.12625 64.6175 -132.125 65 C-137.87413637 67.46391559 -143.6846166 70.62067489 -147.1875 75.875 C-147.76489598 80.47852972 -147.76489598 80.47852972 -145.91796875 84.48828125 C-139.71424662 89.45966129 -131.73061928 89.28550989 -124.1875 88.875 C-123.25035156 88.8440625 -122.31320313 88.813125 -121.34765625 88.78125 C-109.04127625 88.12050477 -97.52861638 84.1993952 -86.11328125 79.828125 C-83.1875 78.875 -83.1875 78.875 -79.1875 78.875 C-79.1875 78.215 -79.1875 77.555 -79.1875 76.875 C-75.2275 75.885 -75.2275 75.885 -71.1875 74.875 C-71.1875 74.215 -71.1875 73.555 -71.1875 72.875 C-68.2175 71.885 -65.2475 70.895 -62.1875 69.875 C-62.1875 69.215 -62.1875 68.555 -62.1875 67.875 C-60.80410596 66.89650177 -59.41155888 65.92846707 -57.9765625 65.02734375 C-55.48716057 63.42390801 -53.15381325 61.6240023 -50.80078125 59.828125 C-49.1875 58.875 -49.1875 58.875 -46.1875 58.875 C-45.8575 57.885 -45.5275 56.895 -45.1875 55.875 C-44.383125 55.565625 -43.57875 55.25625 -42.75 54.9375 C-39.63158074 53.64449689 -39.60285689 52.79417359 -38.1875 49.875 C-35.53337239 48.03752704 -33.25388854 46.89712951 -30.1875 45.875 C-31.66928208 51.38637653 -35.54948539 54.6911146 -39.5 58.5625 C-40.21841064 59.27148438 -40.93682129 59.98046875 -41.67700195 60.7109375 C-51.55686901 70.31633343 -62.29513031 77.92873974 -74.1875 84.875 C-75.00089844 85.37 -75.81429687 85.865 -76.65234375 86.375 C-81.17849793 89.04773779 -85.54215128 90.78176144 -90.6328125 92.1015625 C-93.36106872 92.87376228 -93.36106872 92.87376228 -96.53125 94.328125 C-111.19182096 100.53067425 -125.56955911 101.03637941 -141.1875 100.875 C-139.7025 100.38 -139.7025 100.38 -138.1875 99.875 C-138.1875 99.215 -138.1875 98.555 -138.1875 97.875 C-139.02861328 97.69710937 -139.02861328 97.69710937 -139.88671875 97.515625 C-146.93836138 95.55217952 -153.52548378 91.42923044 -159.1875 86.875 C-159.1875 86.215 -159.1875 85.555 -159.1875 84.875 C-160.1775 84.545 -161.1675 84.215 -162.1875 83.875 C-161.1975 83.38 -161.1975 83.38 -160.1875 82.875 C-159.98653658 81.01077084 -159.98653658 81.01077084 -160 78.8125 C-159.42284712 72.84227928 -156.62967343 69.71284948 -152.1875 65.875 C-143.06610335 59.08337184 -132.86905007 54.67483418 -122.18359375 50.96484375 C-119.59002641 50.02142095 -117.04956825 49.00610966 -114.49609375 47.9609375 C-109.34317234 45.88800012 -104.11824657 44.19588861 -98.8125 42.5625 C-48.88803077 27.69172825 -48.88803077 27.69172825 -4.33984375 1.5703125 C-2.1875 -0.125 -2.1875 -0.125 0 0 Z " fill="#1160C1" transform="translate(207.1875,156.125)"/>
<path d="M0 0 C19.8 0 39.6 0 60 0 C60 12 60 12 59 16 C44.81 16 30.62 16 16 16 C16 18.97 16 21.94 16 25 C15.34 29.95 14.68 34.9 14 40 C26.21 40 38.42 40 51 40 C50.34 45.28 49.68 50.56 49 56 C36.79 56 24.58 56 12 56 C11.71125 59.155625 11.4225 62.31125 11.125 65.5625 C10.29821686 74.41378042 9.2447051 83.19815677 8 92 C2.06 92 -3.88 92 -10 92 C-10 85.80528863 -9.7910747 80.1138102 -8.9765625 74.0390625 C-8.87032562 73.20901703 -8.76408875 72.37897156 -8.65463257 71.52377319 C-8.3167407 68.89012892 -7.9713491 66.25754418 -7.625 63.625 C-7.176648 60.18007578 -6.73171194 56.73472393 -6.2890625 53.2890625 C-6.1781427 52.42774719 -6.0672229 51.56643188 -5.95294189 50.67901611 C-5.23391422 45.0290582 -4.60336065 39.3768947 -4.0234375 33.7109375 C-2.83733414 22.45653695 -1.40366757 11.2293406 0 0 Z " fill="#0CACE9" transform="translate(725,92)"/>
<path d="M0 0 C4.0089722 3.39891121 7.32738018 6.98214055 9 12 C9.82241869 30.68611777 7.20468065 48.6459199 4 67 C-1.61 67 -7.22 67 -13 67 C-13.16356642 59.56454331 -12.54003807 52.54234854 -11.5 45.1875 C-8.63426525 30.17266547 -8.63426525 30.17266547 -12 16 C-16.27138075 13.15241283 -19.98745207 13.26218945 -25 14 C-30.41517369 16.34088213 -32.66441421 19.6553394 -35 25 C-35.48194605 27.62015741 -35.84541412 30.10360536 -36.09765625 32.7421875 C-36.21735023 33.83299118 -36.21735023 33.83299118 -36.33946228 34.9458313 C-36.59136986 37.25454313 -36.82796826 39.56446385 -37.0625 41.875 C-37.3026773 44.17808992 -37.5463079 46.48069405 -37.79624939 48.78274536 C-37.95047841 50.20907563 -38.09897832 51.63604247 -38.24049377 53.06369019 C-38.75982542 57.94833361 -39.78310782 62.13243127 -41 67 C-46.61 67 -52.22 67 -58 67 C-58.18508084 58.98203379 -57.46899938 51.2865517 -56.46875 43.3359375 C-56.23569153 41.4261058 -56.23569153 41.4261058 -55.9979248 39.47769165 C-55.58893373 36.12671152 -55.17280044 32.77665766 -54.75506592 29.42675781 C-54.32840447 25.99468049 -53.90865215 22.5617587 -53.48828125 19.12890625 C-52.66515183 12.41847957 -51.83458351 5.70901135 -51 -1 C-45.39 -1 -39.78 -1 -34 -1 C-33.67 1.31 -33.34 3.62 -33 6 C-32.13375 5.236875 -31.2675 4.47375 -30.375 3.6875 C-21.30857708 -3.84296421 -10.64095561 -5.04045266 0 0 Z " fill="#F8F8F9" transform="translate(397,117)"/>
<path d="M0 0 C2.95020149 2.43168123 5.17545846 4.48401596 6.5625 8.125 C6.78116413 10.84558856 6.70175907 13.3862383 6.5625 16.125 C4.12315775 16.26001894 1.69125896 16.35903897 -0.75 16.4375 C-1.44029297 16.47939453 -2.13058594 16.52128906 -2.84179688 16.56445312 C-4.86328125 16.61328125 -4.86328125 16.61328125 -8.4375 16.125 C-10.16796875 13.73046875 -10.16796875 13.73046875 -11.4375 11.125 C-15.43556374 8.42139132 -19.77474137 8.43327207 -24.4375 9.125 C-27.17387301 10.60792843 -27.17387301 10.60792843 -28.4375 13.125 C-28.68151278 15.73891389 -28.68151278 15.73891389 -27.4375 18.125 C-23.32706616 21.14507067 -18.97076615 22.2241849 -14.125 23.5 C-6.86693369 25.53182626 -0.6275108 27.5233749 4.5 33.3125 C6.87753938 39.6059866 7.49223709 46.00970783 4.6953125 52.24609375 C0.67645566 58.91185286 -5.0880658 62.8119801 -12.4375 65.125 C-23.40160852 67.3356254 -33.66596913 67.143764 -43.24609375 60.95703125 C-46.81430967 58.20745838 -49.46137067 55.15630384 -51.4375 51.125 C-51.46316496 48.28645587 -51.01837855 45.93257966 -50.4375 43.125 C-48.01813683 42.96250546 -45.60968141 42.84402183 -43.1875 42.75 C-42.50558594 42.69972656 -41.82367188 42.64945313 -41.12109375 42.59765625 C-39.109375 42.5390625 -39.109375 42.5390625 -35.4375 43.125 C-33.09375 46.0625 -33.09375 46.0625 -31.4375 49.125 C-27.45817113 51.55681209 -22.99595292 51.84475572 -18.4375 51.125 C-14.90163289 49.63074084 -14.90163289 49.63074084 -12.4375 47.125 C-11.60393587 44.58087964 -11.60393587 44.58087964 -12.4375 42.125 C-15.8579324 38.74830714 -20.11397902 37.97027807 -24.625 36.8125 C-32.63790478 34.58909939 -40.04020545 32.05446547 -45 24.9375 C-47.25713089 20.1817777 -47.36457952 15.24190403 -46.4375 10.125 C-43.85306564 3.80532653 -39.80709934 0.00344282 -33.7265625 -2.9453125 C-22.34653693 -7.56723415 -10.25550405 -7.28779409 0 0 Z " fill="#F6F6F7" transform="translate(463.4375,119.875)"/>
<path d="M0 0 C1.89492188 0.01353516 1.89492188 0.01353516 3.828125 0.02734375 C4.79234375 0.03894531 5.7565625 0.05054687 6.75 0.0625 C6.60805236 2.12527107 6.46127784 4.18771031 6.3125 6.25 C6.23128906 7.39855469 6.15007813 8.54710938 6.06640625 9.73046875 C5.75 13.0625 5.75 13.0625 4.75 18.0625 C10.03 18.0625 15.31 18.0625 20.75 18.0625 C20.42 23.0125 20.09 27.9625 19.75 33.0625 C14.14 33.0625 8.53 33.0625 2.75 33.0625 C2.79125 34.42375 2.8325 35.785 2.875 37.1875 C2.88728541 41.53653453 2.42753459 45.64326669 1.75 49.9375 C0.78055897 56.266565 0.02026521 62.6665892 0.75 69.0625 C2.58737827 71.33466848 2.58737827 71.33466848 5.3515625 71.2578125 C6.34929688 71.23460937 7.34703125 71.21140625 8.375 71.1875 C10.14875 71.14625 11.9225 71.105 13.75 71.0625 C13.75 76.0125 13.75 80.9625 13.75 86.0625 C6.33651932 88.19858765 -0.66472758 88.86806233 -8.25 87.0625 C-13.33608987 84.14386689 -16.52100858 80.69834704 -18.25 75.0625 C-19.72657637 61.21719948 -16.93637263 46.78221778 -15.25 33.0625 C-18.22 33.0625 -21.19 33.0625 -24.25 33.0625 C-23.59 28.1125 -22.93 23.1625 -22.25 18.0625 C-18.95 18.0625 -15.65 18.0625 -12.25 18.0625 C-12.270625 16.7425 -12.29125 15.4225 -12.3125 14.0625 C-12.31950443 9.64270178 -11.88576094 5.43335646 -11.25 1.0625 C-7.49600202 -0.1414337 -3.91782588 -0.03627617 0 0 Z " fill="#F7F7F8" transform="translate(687.25,97.9375)"/>
<path d="M0 0 C1.24458984 0.00064453 2.48917969 0.00128906 3.77148438 0.00195312 C5.72344727 0.02612305 5.72344727 0.02612305 7.71484375 0.05078125 C9.02001953 0.04755859 10.32519531 0.04433594 11.66992188 0.04101562 C21.38548048 0.09641798 21.38548048 0.09641798 23.65234375 2.36328125 C23.89526367 4.84326172 23.89526367 4.84326172 23.8828125 7.98046875 C23.8825708 9.13554932 23.8823291 10.29062988 23.88208008 11.48071289 C23.82487245 16.57020776 23.75905096 21.65941195 23.67480469 26.74853516 C23.65498695 29.93789896 23.73855924 33.09581495 23.87890625 36.28125 C24.24164309 48.98995249 24.24164309 48.98995249 20.2890625 53.609375 C17.66007882 56.11564131 14.76742713 58.10390645 11.70410156 60.04199219 C9.44188742 61.49881072 7.28204382 63.05995989 5.11328125 64.65234375 C2.16339332 66.80543722 -0.79431752 68.94254056 -3.79296875 71.02734375 C-4.40672363 71.4548291 -5.02047852 71.88231445 -5.65283203 72.32275391 C-7.34765625 73.36328125 -7.34765625 73.36328125 -10.34765625 74.36328125 C-10.47695383 58.1036129 -10.38121507 41.84473448 -10.084198 25.58734131 C-10.0515021 23.68788653 -10.02393483 21.78833654 -10.00149536 19.88873291 C-9.96834612 17.20009177 -9.91625108 14.51244904 -9.859375 11.82421875 C-9.85298004 11.01293518 -9.84658508 10.20165161 -9.83999634 9.36578369 C-9.76143232 6.39618376 -9.69533604 3.97766508 -8.21240234 1.35717773 C-5.4390369 -0.12100644 -3.12975639 -0.00815098 0 0 Z " fill="#089CE1" transform="translate(140.34765625,67.63671875)"/>
<path d="M0 0 C1.14984375 -0.00386719 2.2996875 -0.00773437 3.484375 -0.01171875 C4.68578125 -0.00011719 5.8871875 0.01148437 7.125 0.0234375 C8.32640625 0.01183594 9.5278125 0.00023438 10.765625 -0.01171875 C12.49039063 -0.00591797 12.49039063 -0.00591797 14.25 0 C15.83167969 0.00507568 15.83167969 0.00507568 17.4453125 0.01025391 C20.125 0.3984375 20.125 0.3984375 21.97167969 1.68920898 C24.01571969 4.71849012 23.46872911 8.31172284 23.375 11.8359375 C23.35747681 13.08455566 23.35747681 13.08455566 23.33959961 14.35839844 C23.18560969 22.99150852 22.94769433 31.66761194 22.26025391 40.27636719 C22.07425496 42.6579018 22.07425496 42.6579018 22.24609375 46.0859375 C20.37803482 51.60549837 15.6280105 53.14693225 10.625 55.6484375 C9.655625 56.1640625 8.68625 56.6796875 7.6875 57.2109375 C1.95791349 60.19894767 -3.72627767 62.4449173 -9.875 64.3984375 C-9.90007122 58.44344373 -9.91803204 52.48848195 -9.92993164 46.53344727 C-9.93490226 44.51553816 -9.94168108 42.49763255 -9.95043945 40.47973633 C-9.99247589 30.53193605 -10.00451566 20.58435288 -9.55859375 10.64453125 C-9.53636246 9.94771744 -9.51413116 9.25090363 -9.4912262 8.53297424 C-9.34245141 5.83700826 -9.11870091 3.79812724 -7.69946289 1.47045898 C-5.08295302 -0.06695502 -3.02337112 0.00970214 0 0 Z " fill="#079FE8" transform="translate(94.875,100.6015625)"/>
<path d="M0 0 C5.94 0 11.88 0 18 0 C18.15313204 7.54523331 17.58519018 14.77023277 16.625 22.25 C16.48707031 23.36044678 16.34914063 24.47089355 16.20703125 25.61499023 C15.38487479 32.17351287 14.49456624 38.71906874 13.52734375 45.2578125 C12.6713166 51.33243482 11.93558351 57.42192131 11.18237305 63.51000977 C9.83957871 74.34675979 8.42398644 85.1736634 7 96 C1.39 96 -4.22 96 -10 96 C-10.12140028 88.32349471 -9.71027911 80.94125002 -8.79296875 73.32421875 C-8.6669075 72.23776566 -8.54084625 71.15131256 -8.41096497 70.03193665 C-8.14403116 67.74156729 -7.8741031 65.4515451 -7.60131836 63.16186523 C-7.19322769 59.73558897 -6.79398872 56.30837825 -6.39648438 52.88085938 C-5.05277891 41.37968325 -3.63455683 29.89387287 -1.99247742 18.43107605 C-1.12642786 12.29915571 -0.52518123 6.17080212 0 0 Z " fill="#0EADEA" transform="translate(796,88)"/>
<path d="M0 0 C5.94 0 11.88 0 18 0 C18.21948936 9.18315164 17.39238205 17.85840902 16.0625 26.9375 C14.85286429 35.34510932 13.7921092 43.69455149 13.20385742 52.17016602 C12.95420904 55.63564435 12.56741706 59.05380395 12.125 62.5 C12.04330566 63.13873047 11.96161133 63.77746094 11.87744141 64.43554688 C10.68266167 73.63687425 9.33457326 82.81813594 8 92 C2.06 92 -3.88 92 -10 92 C-7.03021012 53.45591857 -7.03021012 53.45591857 -4.18261719 34.32250977 C-2.50548667 22.91696079 -1.27491394 11.45614162 0 0 Z " fill="#F8F8F9" transform="translate(316,92)"/>
<path d="M0 0 C1.64742187 0.00386719 1.64742187 0.00386719 3.328125 0.0078125 C4.46507812 0.03617188 5.60203125 0.06453125 6.7734375 0.09375 C7.918125 0.09117187 9.0628125 0.08859375 10.2421875 0.0859375 C18.58690776 0.18411068 18.58690776 0.18411068 20.97705078 1.92773438 C22.91002805 4.67692922 22.46496702 7.29388596 22.3984375 10.59375 C22.38200195 11.62725586 22.38200195 11.62725586 22.36523438 12.68164062 C22.1881792 21.32655214 21.67371202 29.96424008 21.1484375 38.59375 C19.65957031 39.32078125 19.65957031 39.32078125 18.140625 40.0625 C9.85859463 44.13892396 1.787026 48.42055407 -6.15625 53.125 C-8.8515625 54.59375 -8.8515625 54.59375 -10.8515625 54.59375 C-10.9784135 47.70715009 -11.06593516 40.82085177 -11.1262207 33.93334961 C-11.15135375 31.59078716 -11.18546558 29.24830305 -11.22875977 26.90600586 C-11.28946178 23.53740101 -11.31778501 20.16983351 -11.33984375 16.80078125 C-11.36565018 15.75477249 -11.3914566 14.70876373 -11.41804504 13.63105774 C-11.41985822 8.92285974 -11.39640904 6.38991293 -8.68676758 2.43041992 C-5.46715347 0.34472657 -3.80540791 -0.02692361 0 0 Z " fill="#0780E2" transform="translate(50.8515625,133.40625)"/>
<path d="M0 0 C5.94 0 11.88 0 18 0 C16.78910371 14.75091848 15.18217792 29.4292817 13.4375 44.125 C13.32572418 45.07348816 13.21394836 46.02197632 13.0987854 46.99920654 C12.77600382 49.73162443 12.44929791 52.46354118 12.12109375 55.1953125 C11.97427658 56.43785797 11.97427658 56.43785797 11.82449341 57.70550537 C11.39675224 61.22432865 10.86133795 64.55464819 10 68 C4.39 68 -1.22 68 -7 68 C-6.59865561 50.47462849 -4.30968936 33.42592658 -1.8379364 16.10090637 C-1.08162224 10.74206435 -0.47673083 5.39030886 0 0 Z " fill="#F9F9F9" transform="translate(485,116)"/>
<path d="M0 0 C4.11878753 3.7356445 6.31305099 6.72847607 7.0703125 12.20703125 C7.39912478 20.7451901 5.73183839 27.87339652 0.125 34.4375 C-5.13362246 38.75226715 -8.5337553 38.92756241 -15.203125 38.81640625 C-18.3125 38.4375 -18.3125 38.4375 -21.4375 36.3125 C-22.05625 35.36375 -22.675 34.415 -23.3125 33.4375 C-23.910625 32.550625 -24.50875 31.66375 -25.125 30.75 C-27.6586326 23.68249855 -26.64576566 16.43729697 -24.3125 9.4375 C-19.05293443 0.00655485 -10.27001538 -4.84434688 0 0 Z " fill="#0F1529" transform="translate(861.3125,131.5625)"/>
<path d="M0 0 C3.72372012 1.55360508 6.86521123 3.36827759 9.1953125 6.71875 C11.40777804 12.99098241 11.19598726 22.46541443 8.4375 28.5625 C5.72844851 33.00961678 1.6527386 36.6736307 -3 39 C-7.92985786 39.48425335 -12.4332951 39.76668538 -16.9375 37.5625 C-21.46400154 31.93866476 -23.38141614 27.10540801 -22.9375 19.8125 C-21.85135161 11.33839176 -18.51189781 6.90652787 -12.13671875 1.38671875 C-8.32636654 -1.08617893 -4.36974125 -0.70648511 0 0 Z " fill="#131628" transform="translate(550,130)"/>
<path d="M0 0 C4.29161047 -0.05783842 8.58312145 -0.0935412 12.875 -0.125 C14.09832031 -0.14175781 15.32164062 -0.15851563 16.58203125 -0.17578125 C17.74863281 -0.18222656 18.91523438 -0.18867187 20.1171875 -0.1953125 C21.19597168 -0.20578613 22.27475586 -0.21625977 23.38623047 -0.22705078 C26 0 26 0 28 2 C28.17458423 4.89099647 28.23372557 7.67397966 28.1875 10.5625 C28.18105469 11.3757373 28.17460937 12.18897461 28.16796875 13.02685547 C28.09896482 18.41024018 27.78976289 23.66910048 27 29 C24.47754508 26.47754508 21.96035206 23.95836967 19.5 21.375 C17.09649021 18.91918135 17.09649021 18.91918135 14.1875 17.3125 C13.465625 16.879375 12.74375 16.44625 12 16 C12 15.34 12 14.68 12 14 C9.34771188 12.92474806 6.71631546 11.90543849 4 11 C3.67 10.34 3.34 9.68 3 9 C2.154375 8.54625 1.30875 8.0925 0.4375 7.625 C-0.366875 7.08875 -1.17125 6.5525 -2 6 C-2 4.68 -2 3.36 -2 2 C-1.34 2 -0.68 2 0 2 C0 1.34 0 0.68 0 0 Z " fill="#20D0F4" transform="translate(136,68)"/>
<path d="M0 0 C0.33 0 0.66 0 1 0 C1.02505615 0.86802246 1.0501123 1.73604492 1.07592773 2.63037109 C1.17099484 5.84713163 1.27023203 9.06372849 1.37231445 12.28027344 C1.41565846 13.6731259 1.45733396 15.06603131 1.49731445 16.45898438 C1.55502932 18.45976651 1.61921869 20.46035859 1.68359375 22.4609375 C1.72025146 23.66540527 1.75690918 24.86987305 1.79467773 26.11083984 C1.81052987 28.93996367 1.81052987 28.93996367 3 31 C4.11375 30.34 5.2275 29.68 6.375 29 C9.75 27 9.75 27 12 27 C12 26.34 12 25.68 12 25 C16.46251637 21.4528716 21.39031733 19.14330675 27 18 C27.99 18.33 28.98 18.66 30 19 C30.66 17.68 31.32 16.36 32 15 C33.02297383 19.86993175 33.53159059 24.56241597 31 29 C22.39551522 36.48154041 10.61012655 40.46329115 0 44 C0 29.48 0 14.96 0 0 Z " fill="#0863CC" transform="translate(85,121)"/>
<path d="M0 0 C3.00115208 2.00076805 4.46981125 3.47217799 5.66015625 6.90234375 C6.44514657 10.87302295 6.16442943 12.67114113 4.3125 16.375 C0.84084629 20.3157961 -0.70467386 20.83551414 -5.9375 21.5 C-9.49853293 21.38684568 -10.02247081 20.98174246 -13 18.5625 C-15.34261674 15.2113669 -15.6574413 12.1435664 -15.43359375 8.12109375 C-14.78656435 4.95589587 -13.31896482 3.18255512 -11 1 C-7.51118574 -0.74440713 -3.80666824 -0.56541186 0 0 Z " fill="#F6F6F7" transform="translate(501,87)"/>
<path d="M0 0 C2.0625 1 2.0625 1 3.0625 3 C3.51242102 6.3422704 3.78264234 8.85624452 1.93359375 11.79296875 C-0.6704957 14.65542738 -2.25092221 15.87883921 -6.125 16.5625 C-8.9375 16 -8.9375 16 -10.875 14.9375 C-11.9375 13 -11.9375 13 -12.125 9.6875 C-10.67021533 5.17001075 -8.86547354 3.63270745 -5.01171875 1.03125 C-2.9375 0 -2.9375 0 0 0 Z " fill="#20C2E5" transform="translate(230.9375,138)"/>
<path d="M0 0 C0.33 0 0.66 0 1 0 C1.02505615 0.55985596 1.0501123 1.11971191 1.07592773 1.6965332 C1.19203745 4.23541305 1.3146958 6.77393553 1.4375 9.3125 C1.47681641 10.19357422 1.51613281 11.07464844 1.55664062 11.98242188 C1.59853516 12.82998047 1.64042969 13.67753906 1.68359375 14.55078125 C1.72025146 15.33106689 1.75690918 16.11135254 1.79467773 16.9152832 C1.94125263 19.19329101 1.94125263 19.19329101 3 22 C3.47422063 30.00596 2.70957157 38.02999074 2 46 C2.99 46.33 3.98 46.66 5 47 C3.35 47.66 1.7 48.32 0 49 C0 32.83 0 16.66 0 0 Z " fill="#0A46AF" transform="translate(40,139)"/>
<path d="M0 0 C0.928125 0.20625 1.85625 0.4125 2.8125 0.625 C3.5 2.9375 3.5 2.9375 3.8125 5.625 C2.6875 7.4375 2.6875 7.4375 0.8125 8.625 C-2.13636777 9.06733017 -3.56441063 9.04039291 -6.0625 7.375 C-7.1875 5.625 -7.1875 5.625 -7.0625 3.5625 C-5.45768989 0.0089919 -3.7043824 -0.43580969 0 0 Z " fill="#19BBDE" transform="translate(246.1875,119.375)"/>
<path d="M0 0 C1.9375 1.5 1.9375 1.5 3 3 C2.67 3.99 2.34 4.98 2 6 C1.34 5.01 0.68 4.02 0 3 C-2.7492195 1.84153683 -2.7492195 1.84153683 -6 2 C-8.47956586 3.45856816 -10.39934813 4.79562068 -12.5625 6.625 C-13.11357422 7.06457031 -13.66464844 7.50414062 -14.23242188 7.95703125 C-16.90203486 10.11678933 -19.33680757 12.34014702 -21.7578125 14.78515625 C-23.9592646 16.95976137 -24.98247018 17.66471891 -28 18 C-26.46164785 13.7399479 -23.26312145 11.5935796 -19.75 9 C-18.90888672 8.36191406 -18.90888672 8.36191406 -18.05078125 7.7109375 C-6.64351242 -0.87744504 -6.64351242 -0.87744504 0 0 Z " fill="#7EDAE5" transform="translate(240,31)"/>
<path d="M0 0 C5.94 0 11.88 0 18 0 C17.67 0.66 17.34 1.32 17 2 C16.24074219 1.96519531 15.48148438 1.93039063 14.69921875 1.89453125 C13.70535156 1.86746094 12.71148438 1.84039062 11.6875 1.8125 C10.70136719 1.77769531 9.71523438 1.74289063 8.69921875 1.70703125 C5.98965634 1.77107985 5.98965634 1.77107985 4.1875 3.34375 C2.65100373 5.48675795 2.34959805 7.4129744 2 10 C1.67 10 1.34 10 1 10 C0.67 6.7 0.34 3.4 0 0 Z " fill="#1B9FD1" transform="translate(891,116)"/>
<path d="M0 0 C2.0625 0.4375 2.0625 0.4375 4 1 C4.625 2.875 4.625 2.875 5 5 C4.34 5.66 3.68 6.32 3 7 C0.375 6.625 0.375 6.625 -2 6 C-1.125 1.125 -1.125 1.125 0 0 Z " fill="#1AB1D1" transform="translate(250,107)"/>
<path d="M0 0 C0.82145471 2.84942103 1.08514027 5.29137545 1 8.25 C0.94234102 12.59604558 1.37472703 16.70124832 2 21 C-1.34307452 17.94762761 -1.9575289 15.84942203 -2.1875 11.25 C-2.14992636 7.19204676 -1.27940817 3.83822452 0 0 Z " fill="#1F6CCE" transform="translate(22,218)"/>
<path d="M0 0 C0.66 0.33 1.32 0.66 2 1 C1.43152344 1.4846875 0.86304688 1.969375 0.27734375 2.46875 C-4.93070664 6.98992897 -9.60470654 11.68607607 -14 17 C-14 12.08113186 -10.31173311 9.3948461 -7 6 C-4.72300284 3.91201998 -2.39497582 1.9550823 0 0 Z " fill="#2572CD" transform="translate(38,201)"/>
<path d="M0 0 C0.8971875 0.309375 0.8971875 0.309375 1.8125 0.625 C-0.0625 4.5 -0.0625 4.5 -1.1875 5.625 C-3.18708364 5.66580783 -5.18795254 5.66754356 -7.1875 5.625 C-5.69046729 2.17030914 -4.27938051 -0.73360809 0 0 Z " fill="#26BDD5" transform="translate(204.1875,35.375)"/>
<path d="M0 0 C0 0.66 0 1.32 0 2 C-0.66 2 -1.32 2 -2 2 C-2.433125 2.928125 -2.433125 2.928125 -2.875 3.875 C-4 6 -4 6 -6 8 C-6 7.34 -6 6.68 -6 6 C-7.65 7.32 -9.3 8.64 -11 10 C-11.66 9.67 -12.32 9.34 -13 9 C-11.73113036 7.87278564 -10.45982438 6.74831342 -9.1875 5.625 C-8.47980469 4.99851563 -7.77210938 4.37203125 -7.04296875 3.7265625 C-2.63348416 0 -2.63348416 0 0 0 Z " fill="#112E60" transform="translate(183,196)"/>
<path d="M0 0 C0.99 0 1.98 0 3 0 C3.20140476 3.62528568 2.85776765 5.86501708 1 9 C0.34 9 -0.32 9 -1 9 C-1.09765625 2.84765625 -1.09765625 2.84765625 -1 1 C-0.67 0.67 -0.34 0.34 0 0 Z " fill="#13BAD1" transform="translate(178,55)"/>
<path d="M0 0 C0.66 0 1.32 0 2 0 C2 2.64 2 5.28 2 8 C1.34 8 0.68 8 0 8 C-0.33 8.66 -0.66 9.32 -1 10 C-1.66 10 -2.32 10 -3 10 C-2.01 6.7 -1.02 3.4 0 0 Z " fill="#103551" transform="translate(938,139)"/>
<path d="M0 0 C2.0625 0.4375 2.0625 0.4375 4 1 C3.67 2.32 3.34 3.64 3 5 C1.68 5.33 0.36 5.66 -1 6 C-1.042721 4.33388095 -1.04063832 2.66617115 -1 1 C-0.67 0.67 -0.34 0.34 0 0 Z " fill="#2FC8E1" transform="translate(186,45)"/>
<path d="M0 0 C1.32 0 2.64 0 4 0 C4 1.65 4 3.3 4 5 C2.68 5.33 1.36 5.66 0 6 C0 4.02 0 2.04 0 0 Z " fill="#129EBB" transform="translate(176,82)"/>
<path d="M0 0 C0.66 0.33 1.32 0.66 2 1 C1.04956626 2.33897583 0.08940853 3.67105427 -0.875 5 C-1.40867187 5.7425 -1.94234375 6.485 -2.4921875 7.25 C-3.23855469 8.11625 -3.23855469 8.11625 -4 9 C-4.66 9 -5.32 9 -6 9 C-4.68775452 5.06326356 -3.08089673 2.77280706 0 0 Z " fill="#212639" transform="translate(617,132)"/>
<path d="M0 0 C0.33 0.66 0.66 1.32 1 2 C-5.14285714 7.57142857 -5.14285714 7.57142857 -10 8 C-6.97727468 4.74475735 -3.74281699 2.38179263 0 0 Z " fill="#1599D3" transform="translate(157,137)"/>
<path d="M0 0 C1.65 0 3.3 0 5 0 C4.2884375 0.8353125 4.2884375 0.8353125 3.5625 1.6875 C1.87604004 4.18346074 1.41046893 6.0446237 1 9 C0.67 9 0.34 9 0 9 C0 6.03 0 3.06 0 0 Z " fill="#16A2DA" transform="translate(892,117)"/>
<path d="M0 0 C1.98 0.99 1.98 0.99 4 2 C4 3.65 4 5.3 4 7 C2 5.75 2 5.75 0 4 C0 2.68 0 1.36 0 0 Z " fill="#5CD9DF" transform="translate(261,59)"/>
<path d="M0 0 C0.33 0 0.66 0 1 0 C1.33 3.96 1.66 7.92 2 12 C-0.475 11.01 -0.475 11.01 -3 10 C-2.34 9.67 -1.68 9.34 -1 9 C-0.53348793 6.87423218 -0.53348793 6.87423218 -0.375 4.4375 C-0.30023438 3.61121094 -0.22546875 2.78492188 -0.1484375 1.93359375 C-0.09945312 1.29550781 -0.05046875 0.65742188 0 0 Z " fill="#153382" transform="translate(48,230)"/>
<path d="M0 0 C2.125 0.375 2.125 0.375 4 1 C1.47211993 3.79872437 -0.20411134 5.45773019 -4 6 C-2.84826645 3.53199953 -1.95216435 1.95216435 0 0 Z " fill="#66DEEC" transform="translate(216,43)"/>
<path d="M0 0 C0.99 0.33 1.98 0.66 3 1 C2.34 3.31 1.68 5.62 1 8 C0.34 7.67 -0.32 7.34 -1 7 C-0.67 4.69 -0.34 2.38 0 0 Z " fill="#15BADF" transform="translate(220,144)"/>
<path d="M0 0 C-1.13474948 3.40424844 -1.96811304 4.21653709 -5 6 C-5.99 5.67 -6.98 5.34 -8 5 C-2.25 0 -2.25 0 0 0 Z " fill="#75CFDB" transform="translate(226,37)"/>
</svg>
